# xmcd
#
# Track frame offsets: 
#        150
#        15958
#        30089
#        44096
#        55624
#        76505
#        87727
#        104567
#        127094
#        143836
#        158333
#        182603
#        201109
#
# Disc length: 2853 seconds
#
# Revision: 0
# Processed by: cddbd v1.5.2PL0 Copyright (c) Steve Scherf et al.
# Submitted via: ExactAudioCopyFreeDBPlugin 1.0
#
DISCID=9a0b230d
DTITLE=Sugar Boy And The Sinners - All You Can Eat !
DYEAR=2014
DGENRE=Blues
TTITLE0=Third Round Of Gin
TTITLE1=Yes I Know
TTITLE2=It Won't Be Long
TTITLE3=End Of Time
TTITLE4=Bad Habits
TTITLE5=Stop The Fussin'
TTITLE6=High Roller
TTITLE7=Later That Night
TTITLE8=She Tricked Me
TTITLE9=Split Second
TTITLE10=If I Had Money
TTITLE11=Till We Drop
TTITLE12=Who's Hurtin'
EXTD=
EXTT0=
EXTT1=
EXTT2=
EXTT3=
EXTT4=
EXTT5=
EXTT6=
EXTT7=
EXTT8=
EXTT9=
EXTT10=
EXTT11=
EXTT12=
PLAYORDER=
